<svg width="45" height="38" viewBox="0 0 45 38" fill="none" xmlns="http://www.w3.org/2000/svg">
<path d="M4.82812 20.36L7.8716 13.5774C8.44726 12.0522 9.90639 11.0435 11.536 11.0435H20.9986" stroke="#222222" stroke-width="2" stroke-linecap="round" stroke-linejoin="round"/>
<path d="M32 33.5635V36.52" stroke="#222222" stroke-width="2" stroke-linecap="round" stroke-linejoin="round"/>
<path d="M6 33.5635V36.52" stroke="#222222" stroke-width="2" stroke-linecap="round" stroke-linejoin="round"/>
<path d="M31.6529 25.3914C32.0129 25.3914 32.305 25.6836 32.305 26.0436" stroke="#222222" stroke-width="2" stroke-linecap="round" stroke-linejoin="round"/>
<path d="M31.0005 26.0436C31.0005 25.6836 31.2927 25.3914 31.6527 25.3914" stroke="#222222" stroke-width="2" stroke-linecap="round" stroke-linejoin="round"/>
<path d="M31.6527 26.6957C31.2927 26.6957 31.0005 26.4035 31.0005 26.0435" stroke="#222222" stroke-width="2" stroke-linecap="round" stroke-linejoin="round"/>
<path d="M32.305 26.0435C32.305 26.4035 32.0129 26.6957 31.6529 26.6957" stroke="#222222" stroke-width="2" stroke-linecap="round" stroke-linejoin="round"/>
<path d="M6.87143 25.3914C6.51143 25.3914 6.21926 25.6836 6.21926 26.0436" stroke="#222222" stroke-width="2" stroke-linecap="round" stroke-linejoin="round"/>
<path d="M7.51987 26.0436C7.51987 25.6836 7.2277 25.3914 6.8677 25.3914" stroke="#222222" stroke-width="2" stroke-linecap="round" stroke-linejoin="round"/>
<path d="M6.8677 26.6957C7.2277 26.6957 7.51987 26.4035 7.51987 26.0435" stroke="#222222" stroke-width="2" stroke-linecap="round" stroke-linejoin="round"/>
<path d="M6.21926 26.0435C6.21926 26.4035 6.51143 26.6957 6.87143 26.6957" stroke="#222222" stroke-width="2" stroke-linecap="round" stroke-linejoin="round"/>
<path d="M15.9565 20.1738H6.21739C3.33565 20.1738 1 22.5095 1 25.3912V29.3043C1 30.7443 2.1687 31.913 3.6087 31.913H20" stroke="#222222" stroke-width="2" stroke-linecap="round" stroke-linejoin="round"/>
<path d="M32.7826 20.1738C35.6643 20.1738 38 22.5095 38 25.3912V29.3043C38 30.7443 36.8313 31.913 35.3913 31.913H19" stroke="#222222" stroke-width="2" stroke-linecap="round" stroke-linejoin="round"/>
<path fill-rule="evenodd" clip-rule="evenodd" d="M32.0294 20.853V3.78143C32.0294 3.78143 29.6226 1.1079 21.5079 1.00005C21.3735 0.998092 21.2441 1.05103 21.149 1.14711C21.053 1.24319 21 1.37358 21 1.50888V17.5628C20.9981 17.8373 21.2157 18.0638 21.4902 18.0716C29.6206 18.1814 32.0294 20.853 32.0294 20.853Z" fill="#00A6E9"/>
<path d="M32.0294 20.853V3.78143C32.0294 3.78143 29.6226 1.1079 21.5079 1.00005C21.3735 0.998092 21.2441 1.05103 21.149 1.14711C21.053 1.24319 21 1.37358 21 1.50888V17.5628C20.9981 17.8373 21.2157 18.0638 21.4902 18.0716C29.6206 18.1814 32.0294 20.853 32.0294 20.853" stroke="#222222" stroke-width="2" stroke-linecap="round" stroke-linejoin="round"/>
<path fill-rule="evenodd" clip-rule="evenodd" d="M32.0312 20.853V3.78143C32.0312 3.78143 34.4381 1.1079 42.5528 1.00005C42.6871 0.998092 42.8165 1.05103 42.9116 1.14711C43.0077 1.24319 43.0607 1.37358 43.0607 1.50888V17.5628C43.0626 17.8373 42.845 18.0638 42.5705 18.0716C34.4401 18.1814 32.0312 20.853 32.0312 20.853Z" fill="#00A6E9"/>
<path d="M32.0312 20.853V3.78143C32.0312 3.78143 34.4381 1.1079 42.5528 1.00005C42.6871 0.998092 42.8165 1.05103 42.9116 1.14711C43.0077 1.24319 43.0607 1.37358 43.0607 1.50888V17.5628C43.0626 17.8373 42.845 18.0638 42.5705 18.0716C34.4401 18.1814 32.0312 20.853 32.0312 20.853" stroke="#222222" stroke-width="2" stroke-linecap="round" stroke-linejoin="round"/>
</svg>
