<svg width="42" height="41" viewBox="0 0 42 41" fill="none" xmlns="http://www.w3.org/2000/svg">
<path d="M4.82861 23.3597L7.87209 16.5771C8.44774 15.0519 9.90687 14.0432 11.5364 14.0432H18.999" stroke="#222222" stroke-width="2" stroke-linecap="round" stroke-linejoin="round"/>
<path d="M32 36.563V39.5195" stroke="#222222" stroke-width="2" stroke-linecap="round" stroke-linejoin="round"/>
<path d="M6 36.563V39.5195" stroke="#222222" stroke-width="2" stroke-linecap="round" stroke-linejoin="round"/>
<path d="M31.6524 28.3911C32.0124 28.3911 32.3045 28.6833 32.3045 29.0433" stroke="#222222" stroke-width="2" stroke-linecap="round" stroke-linejoin="round"/>
<path d="M31 29.0433C31 28.6833 31.2922 28.3911 31.6522 28.3911" stroke="#222222" stroke-width="2" stroke-linecap="round" stroke-linejoin="round"/>
<path d="M31.6522 29.6957C31.2922 29.6957 31 29.4035 31 29.0435" stroke="#222222" stroke-width="2" stroke-linecap="round" stroke-linejoin="round"/>
<path d="M32.3045 29.0435C32.3045 29.4035 32.0124 29.6957 31.6524 29.6957" stroke="#222222" stroke-width="2" stroke-linecap="round" stroke-linejoin="round"/>
<path d="M6.87046 28.3911C6.51046 28.3911 6.21828 28.6833 6.21828 29.0433" stroke="#222222" stroke-width="2" stroke-linecap="round" stroke-linejoin="round"/>
<path d="M7.52085 29.0433C7.52085 28.6833 7.22867 28.3911 6.86867 28.3911" stroke="#222222" stroke-width="2" stroke-linecap="round" stroke-linejoin="round"/>
<path d="M6.86867 29.6957C7.22867 29.6957 7.52085 29.4035 7.52085 29.0435" stroke="#222222" stroke-width="2" stroke-linecap="round" stroke-linejoin="round"/>
<path d="M6.21828 29.0435C6.21828 29.4035 6.51046 29.6957 6.87046 29.6957" stroke="#222222" stroke-width="2" stroke-linecap="round" stroke-linejoin="round"/>
<path d="M15.9565 23.1738H6.21739C3.33565 23.1738 1 25.5095 1 28.3912V32.3043C1 33.7443 2.1687 34.913 3.6087 34.913H20" stroke="#222222" stroke-width="2" stroke-linecap="round" stroke-linejoin="round"/>
<path d="M32.7826 23.1738C35.6643 23.1738 38 25.5095 38 28.3912V32.3043C38 33.7443 36.8313 34.913 35.3913 34.913H19" stroke="#222222" stroke-width="2" stroke-linecap="round" stroke-linejoin="round"/>
<path fill-rule="evenodd" clip-rule="evenodd" d="M28.7707 1.296L20.52 5.512C19.5827 5.99867 18.9947 6.96933 19 8.02533V17.1973C18.996 18.2547 19.5827 19.224 20.5214 19.7107L28.7707 23.9253C29.5427 24.3213 30.4587 24.3213 31.2307 23.9253L39.48 19.7107C40.4187 19.224 41.0054 18.2533 41 17.1973V8.02533C41.0054 6.968 40.4187 5.99867 39.48 5.512L31.2307 1.296C30.4587 0.901333 29.5427 0.901333 28.7707 1.296Z" fill="#00A6E9" stroke="#222222" stroke-width="2" stroke-linecap="round" stroke-linejoin="round"/>
<path d="M40.5659 6.51025L30.0005 11.9076L19.4365 6.51025" stroke="#222222" stroke-width="2" stroke-linecap="round" stroke-linejoin="round"/>
<path d="M29.9992 11.9082V24.2229" stroke="#222222" stroke-width="2" stroke-linecap="round" stroke-linejoin="round"/>
<path d="M24.5 3.47852L35.5 9.09851" stroke="#222222" stroke-width="2" stroke-linecap="round" stroke-linejoin="round"/>
<path d="M35.4992 9.09912V12.9818" stroke="#222222" stroke-width="2" stroke-linecap="round" stroke-linejoin="round"/>
</svg>
